<svg version="1.2" xmlns="http://www.w3.org/2000/svg" viewBox="0 0 269 362" width="269" height="362">
	<style>
		.s0 { opacity: .98;fill: #3299d4 } 
		.s1 { opacity: .98;fill: #050726 } 
	</style>
	<g id="layer1">
		<g id="g3468">
			<path id="path3470" class="s0" d="m151.68 0.16c-18.03-1.33-35.04 7.55-47.14 20.34-16.65 17.35-28.11 39.15-36.14 61.72-2.73-10.13-10.01-18.48-19.19-23.34-3.07-3.43-8.32-6.24-12.53-2.88 2.55 17.09 1.22 35.65-9.59 49.65-23.93 46.18-29.37 99.71-26.26 151.07 4.68 39.17 31.7 73.98 67.44 89.82 44.21 21.71 100.34 20.73 141.39-7.56 43.12-28.56 68.33-84.06 56.14-135.22-7.41-36.01-27.1-68.1-37-103.25-1.74-7.4 0.47-15.78-1.68-22.85-3.9-4.42-9.33 0.79-11.78 4.1-7.93 6.85-14.03 16-17.25 26.06-9.78-22.05-27.34-39.06-41.65-58.2-9.23-14.7-11.41-34.82-1.23-49.55q-1.76 0.05-3.53 0.09z"/>
			<path id="path3472" class="s1" d="m145.58 6.36c-43.14 0-80.53 77.26-81.87 129.59 6.03-66.01-8.01-63.73-20.4-74.08 0 0 2.51 23.3-5.01 36.38-19.33 30.33-33.11 76.91-32.43 142.6 0.67 65.68 49.66 104.67 109.17 113.52l0.64 0.09c70.23 10.09 135.47-38.01 146-107.63 4.16-27.48-3.44-53.25-12.69-77.21-5.09-13.16-25.2-60-26.26-68.27-1.04-8.22-0.58-17.77-0.58-17.77-11.42 10.05-22.63 22.87-21.06 51.55-8.19-32.13-22.12-49.56-39.86-69.27-29.39-33.05-15.65-59.5-15.65-59.5z"/>
			<path id="path3474" class="s0" d="m127.88 27.56c-14.01 9.96-23.01 25.19-31.13 40.03-9.9 19.51-15.06 40.99-19.19 62.36-3.7 9.12-18.07 11.08-23.87 3-4.84-5.98-3.27-14.19-3.08-21.29q0.07-3.04 0.09-6.08c-5.35 10.41-11.66 20.33-15.13 31.55-12.55 34.49-15.72 71.65-15.04 108.16 0.98 19.64 7.32 39.37 20.02 54.58 17.68 22.02 44.74 34.81 72.27 39.62 28.45 4.82 58.87-0.19 83.16-16.04 29.03-18.4 49.57-50.3 52.04-84.83 1.44-18.54-2.43-37.08-9.01-54.3-6.95-19.9-16.07-38.96-23.47-58.67-0.42 5.68 0.27 11.65-1.7 17.08-3.76 7.59-15.16 10.34-21.51 4.35-6.3-5.18-6.09-14.09-8.95-21.12-7.53-20.73-21.31-38.54-36.33-54.38-10.19-12.57-17.8-27.8-18.99-44.15 0 0-0.18 0.13-0.18 0.13z"/>
			<path id="path3476" class="s1" d="m125.38 129.46c-16.39 49.14-62.19 76.02-62.75 144.98-2.32 41.49 26.65 62.16 40.12 65.24 28.76 6.97 59.33 5.75 83.45-14.16 20.54-16.86 36.39-47.24 29.9-73.39-1.33-5.37-3.62-23.81-14.79-36.12-13.88-15.3-22.24-41.43-24.78-46.3-8.92 16.99-10.59 25.13-8.41 39.31 1.77 11.58-13.23-8.33-17.55-29.78-3.04-15.08-14.76-39.28-24.9-50.63-0.1-13.61-0.19-10.4-0.29 0.85z"/>
		</g>
	</g>
</svg>